<?xml version="1.0" encoding="utf-8"?>
<!-- Generator: Adobe Illustrator 25.2.1, SVG Export Plug-In . SVG Version: 6.00 Build 0)  -->
<svg version="1.1" id="download-icon" xmlns="http://www.w3.org/2000/svg" xmlns:xlink="http://www.w3.org/1999/xlink" x="0px"
	 y="0px" viewBox="0 0 59 65" style="enable-background:new 0 0 59 65;" xml:space="preserve">
<path id="arrow" d="M45.4,37.7V57l-5.9-4.9c-0.7-0.6-1.7-0.5-2.3,0.1l-0.7,0.7c-0.3,0.3-0.5,0.8-0.5,1.2c0,0.5,0.2,0.9,0.5,1.2
	l9.8,9.2c0.7,0.6,1.7,0.6,2.3,0l9.8-9.2c0.3-0.3,0.5-0.8,0.5-1.2c0-0.5-0.2-0.9-0.5-1.2l-0.7-0.7c-0.6-0.6-1.6-0.7-2.3-0.1L49.7,57
	V37.7c0-0.9-0.8-1.7-1.7-1.7h-0.9C46.2,36,45.4,36.8,45.4,37.7z"/>
<path id="file-shape" d="M27.3,60.8H5.1c-0.5,0-0.8-0.4-0.8-0.8V5c0-0.5,0.4-0.8,0.8-0.8h24.5c0.5,0,0.8,0.4,0.8,0.8v17.7
	c0,0.9,0.8,1.7,1.7,1.7h17.8c0.5,0,0.8,0.4,0.8,0.8v9.5c0,0.9,0.8,1.7,1.7,1.7h0.8c0.9,0,1.7-0.8,1.7-1.7V22.2
	c0-0.4-0.2-0.9-0.5-1.2L33.9,0.5C33.6,0.2,33.2,0,32.8,0H1.7C0.8,0,0,0.8,0,1.7v61.6C0,64.2,0.8,65,1.7,65h25.6
	c0.9,0,1.7-0.8,1.7-1.7v-0.8c0-0.5-0.2-0.9-0.5-1.2S27.7,60.8,27.3,60.8z M34.7,9.3c0-0.3,0.2-0.6,0.5-0.8c0.3-0.1,0.7-0.1,0.9,0.2
	l10.2,10.1c0.2,0.2,0.3,0.6,0.2,0.9c-0.1,0.3-0.4,0.5-0.8,0.5H35.5c-0.5,0-0.8-0.4-0.8-0.8L34.7,9.3z"/>
</svg>
