<?xml version="1.0" encoding="utf-8"?>
<!-- Generator: Adobe Illustrator 25.1.0, SVG Export Plug-In . SVG Version: 6.00 Build 0)  -->
<svg version="1.1" id="globe-icon" xmlns="http://www.w3.org/2000/svg" xmlns:xlink="http://www.w3.org/1999/xlink" x="0px" y="0px"
	 viewBox="0 0 22 22" style="enable-background:new 0 0 22 22;" xml:space="preserve">
<path id="globe-path" d="M11,0c6.1,0,11,4.9,11,11s-4.9,11-11,11S0,17.1,0,11S4.9,0,11,0z M6.1,12l-4,0c0.4,3.7,3.1,6.8,6.7,7.7
	C7.2,17.4,6.3,14.8,6.1,12z M19.9,12l-4,0c-0.2,2.8-1.1,5.4-2.7,7.7C16.8,18.8,19.5,15.7,19.9,12z M13.9,12l-5.9,0
	c0.3,2.7,1.3,5.3,2.9,7.4C12.7,17.3,13.7,14.7,13.9,12z M8.7,2.3L8.7,2.3c-3.6,0.9-6.3,4-6.7,7.7l4,0C6.3,7.2,7.2,4.6,8.7,2.3z
	 M11,2.6C9.3,4.7,8.3,7.3,8.1,10l5.9,0C13.7,7.3,12.7,4.7,11,2.6z M13.3,2.3l0.2,0.3c1.4,2.2,2.3,4.8,2.5,7.4l4,0
	C19.5,6.3,16.8,3.2,13.3,2.3z"/>
</svg>
