<?xml version="1.0" encoding="utf-8"?>
<!-- Generator: Adobe Illustrator 25.2.0, SVG Export Plug-In . SVG Version: 6.00 Build 0)  -->
<svg version="1.1" id="media-icon" xmlns="http://www.w3.org/2000/svg" xmlns:xlink="http://www.w3.org/1999/xlink" x="0px" y="0px"
	 viewBox="0 0 17 21" style="enable-background:new 0 0 17 21;" xml:space="preserve">
<style type="text/css">
	svg#media-icon #circle{fill:#003865;stroke:#003865;stroke-width:0.45;stroke-linejoin:round;}
	svg#media-icon .st1{fill:#003865;stroke:#003865;stroke-width:0.5;stroke-linejoin:round;}
</style>
<path id="circle" class="st0" d="M8.3,16.9c-2.5,0-4.6-2.1-4.6-4.6c0-2.5,2.1-4.6,4.6-4.6s4.6,2.1,4.6,4.6
	C12.9,14.8,10.8,16.9,8.3,16.9z M8.3,8.4c-2.1,0-3.8,1.7-3.8,3.8c0,2.1,1.7,3.8,3.8,3.8s3.8-1.7,3.8-3.8C12.1,10.1,10.4,8.4,8.3,8.4
	z"/>
<polygon id="arrow" class="st1" points="6.7,10.3 10.6,12.3 6.7,14.2 "/>
<path id="outline" class="st1" d="M15.9,5.6l-4.6-4.6c-0.3-0.3-0.7-0.5-1.1-0.5H2C1.6,0.6,1.2,0.8,1,1.1C0.7,1.4,0.5,1.7,0.5,2.1
	v16.7c0,0.9,0.7,1.5,1.5,1.5h12.7c0.9,0,1.5-0.7,1.5-1.5l0-12.1C16.3,6.3,16.2,5.9,15.9,5.6L15.9,5.6z M15,6h-3.4
	c-0.4,0-0.7-0.3-0.7-0.7l0-3.4L15,6z M14.8,19.5H2c-0.4,0-0.6-0.3-0.6-0.6l0-16.7c0-0.2,0.1-0.3,0.2-0.5C1.7,1.6,1.9,1.5,2,1.5h8
	v3.8c0,0.9,0.7,1.6,1.6,1.6h3.8v12C15.4,19.2,15.1,19.5,14.8,19.5L14.8,19.5z"/>
</svg>
