<?xml version="1.0" encoding="utf-8"?>
<!-- Generator: Adobe Illustrator 25.2.0, SVG Export Plug-In . SVG Version: 6.00 Build 0)  -->
<svg version="1.1" id="home-arrow-icon" xmlns="http://www.w3.org/2000/svg" xmlns:xlink="http://www.w3.org/1999/xlink" x="0px"
	 y="0px" viewBox="0 0 65 15" style="enable-background:new 0 0 65 15;" xml:space="preserve">
<style type="text/css">
	.st0{fill:#81B39B;}
</style>
<path id="arrow-compound" class="st0" d="M64.4,7.9C64.4,7.9,64.4,8,64.4,7.9c-0.1,0.2-0.2,0.3-0.2,0.3c0,0,0,0,0,0l-7,6.5
	C57,14.9,56.7,15,56.5,15c-0.3,0-0.5-0.1-0.7-0.3c-0.4-0.4-0.4-1,0.1-1.4l5.1-4.7L1.5,9c0,0,0,0,0,0c-0.5,0-1-0.4-1-1
	c0-0.6,0.4-1,1-1L61,6.5l-5.2-4.8c-0.4-0.4-0.4-1-0.1-1.4c0.4-0.4,1-0.4,1.4-0.1l7,6.5c0,0,0,0,0,0c0.1,0.1,0.2,0.2,0.2,0.3
	c0,0,0,0,0,0c0.1,0.1,0.1,0.3,0.1,0.4c0,0,0,0,0,0c0,0,0,0,0,0c0,0,0,0.1,0,0.1C64.5,7.7,64.5,7.8,64.4,7.9z"/>
</svg>
