<?xml version="1.0" encoding="utf-8"?>
<!-- Generator: Adobe Illustrator 25.2.0, SVG Export Plug-In . SVG Version: 6.00 Build 0)  -->
<svg version="1.1" id="pdf-icon" xmlns="http://www.w3.org/2000/svg" xmlns:xlink="http://www.w3.org/1999/xlink" x="0px" y="0px"
	 viewBox="0 0 17 21" style="enable-background:new 0 0 17 21;" xml:space="preserve">
<style type="text/css">
	svg#pdf-icon #outline{fill:#003865;stroke:#003865;stroke-width:0.5;stroke-linejoin:round;}
	svg#pdf-icon #symbol{fill:#003865;stroke:#003865;stroke-width:0.25;}
</style>
<path id="outline" class="st0" d="M16,5.6l-4.6-4.6c-0.3-0.3-0.7-0.5-1.1-0.5H2.1C1.7,0.6,1.3,0.8,1,1.1C0.8,1.4,0.6,1.7,0.6,2.1
	v16.7c0,0.9,0.7,1.5,1.5,1.5h12.7c0.9,0,1.5-0.7,1.5-1.5l0-12.1C16.4,6.3,16.2,5.9,16,5.6L16,5.6z M15.1,6h-3.4
	C11.3,6,11,5.7,11,5.3L11,2L15.1,6z M14.9,19.5H2.1c-0.4,0-0.6-0.3-0.6-0.6l0-16.7c0-0.2,0.1-0.3,0.2-0.5C1.8,1.6,2,1.5,2.1,1.5h8
	v3.8c0,0.9,0.7,1.6,1.6,1.6h3.8v12C15.5,19.2,15.2,19.5,14.9,19.5L14.9,19.5z"/>
<path id="symbol" class="st1" d="M10.1,13.3c-0.3-0.2-0.6-0.6-0.9-0.9c-0.2-0.2-0.5-0.6-0.7-1C8.9,10,9,8.8,8.6,8.1
	C8.4,7.8,8.1,7.7,7.8,7.7C7.4,7.7,7,7.9,6.9,8.2C6.6,9,7.1,10.4,7.7,11.5C7.5,12,7.3,12.6,7,13.3c-0.1,0.4-0.3,0.7-0.5,1
	c-1.7,0.7-2.7,1.4-2.9,2.1c-0.1,0.3,0,0.6,0.3,0.9c0.2,0.1,0.4,0.2,0.6,0.2c0.1,0,0.2,0,0.2,0c0.8-0.2,1.6-1.4,2.3-2.6
	c0.4-0.1,0.8-0.3,1.3-0.4c0.6-0.2,1.1-0.3,1.5-0.4c0.8,0.6,1.5,1,2.1,1c0.5,0,0.8-0.1,1.1-0.5c0.2-0.2,0.3-0.4,0.3-0.6
	c0-0.2-0.2-0.5-0.4-0.6c-0.5-0.3-1.1-0.3-1.6-0.3c-0.2,0-0.4,0-0.6,0.1c-0.1,0-0.2,0-0.3,0c-0.1,0-0.1,0-0.2,0
	C10.2,13.2,10.1,13.3,10.1,13.3z M4.6,16.7c-0.1,0-0.1,0-0.2,0c-0.1-0.1-0.1-0.1-0.1-0.1c0-0.2,0.5-0.7,1.6-1.2
	C5.4,16.1,4.9,16.6,4.6,16.7L4.6,16.7z M7.6,8.5c0,0,0-0.1,0.2-0.1C7.9,8.4,8,8.5,8,8.5c0.2,0.3,0.2,1-0.1,1.9
	C7.6,9.6,7.4,8.9,7.6,8.5L7.6,8.5z M8.1,13.7c-0.2,0.1-0.4,0.1-0.6,0.2c0.1-0.1,0.1-0.3,0.2-0.4c0.1-0.4,0.3-0.8,0.5-1.2
	c0.2,0.2,0.3,0.4,0.5,0.6c0.2,0.2,0.4,0.4,0.6,0.6C8.9,13.5,8.5,13.6,8.1,13.7L8.1,13.7z M12.5,14.1c-0.1,0.2-0.3,0.2-0.6,0.2
	c-0.3,0-0.7-0.1-1.1-0.4C12.1,13.7,12.7,13.9,12.5,14.1L12.5,14.1z"/>
</svg>
