
<svg version="1.1" id="external-link-arrow" xmlns="http://www.w3.org/2000/svg"
	 x="0px" y="0px" viewBox="0 0 50 50" style="enable-background:new 0 0 50 50;" xml:space="preserve">
<style type="text/css">
	.st0{fill:#003865;}
</style>
<path class="st0" d="M49.8,1.8c-0.3-0.7-0.9-1.3-1.6-1.6C47.8,0.1,47.5,0,47.1,0H27.5c-1.6,0-2.9,1.3-2.9,2.9s1.3,2.9,2.9,2.9H40
	L0.9,45c-1.1,1.1-1.1,3,0,4.1c0.5,0.6,1.3,0.9,2,0.9s1.5-0.3,2.1-0.9L44.2,10v12.6c0,1.6,1.3,2.9,2.9,2.9c1.6,0,2.9-1.3,2.9-2.9V2.9
	C50,2.5,49.9,2.2,49.8,1.8z"/>
</svg>
