<?xml version="1.0" encoding="utf-8"?>
<svg version="1.1" id="faceBook-icon" xmlns="http://www.w3.org/2000/svg" xmlns:xlink="http://www.w3.org/1999/xlink" x="0px" y="0px" viewBox="0 0 360 352.5" style="enable-background:new 0 0 360 352.5;" xml:space="preserve">
	<style type="text/css">svg#faceBook-icon.st0{fill-rule:evenodd;clip-rule:evenodd;fill:#003865}</style>
	<path class="st0" d="M316,0c24.3,0,44,19.3,44,43.1v266.4c0,23.8-19.7,43.1-44,43.1h-74.9V219.7H288l8.9-56.9h-55.7v-36.9 c0-15.6,7.8-30.7,32.7-30.7h25.3V46.7c0,0-23-3.8-45-3.8c-45.9,0-75.9,27.2-75.9,76.6v43.4h-51v56.9h51v132.8H44 c-24.3,0-44-19.3-44-43.1V43.1C0,19.3,19.7,0,44,0H316z"/>
</svg>
